<svg width="453" height="307" viewBox="0 0 453 307" fill="none" xmlns="http://www.w3.org/2000/svg">
    <path d="M355.021 210.632C355.021 210.632 377.356 198.583 368.545 156.026" stroke="#000103" stroke-width="1.06104" stroke-miterlimit="10"/>
    <path d="M368.138 82.1815H357.277V164.965H368.138V82.1815Z" fill="#3F51B5"/>
    <path d="M366.909 164.965C357.893 164.965 350.312 157.969 350.312 149.224V97.7276C350.312 89.1772 357.689 81.9871 366.909 81.9871C375.926 81.9871 383.507 88.9829 383.507 97.7276V149.224C383.507 157.969 376.13 164.965 366.909 164.965Z" fill="#545D82"/>
    <path d="M359.122 164.965C351.13 164.965 344.573 158.746 344.573 151.167V96.1729C344.573 88.5941 351.13 82.3757 359.122 82.3757C367.113 82.3757 373.671 88.5941 373.671 96.1729V151.167C373.671 158.746 367.318 164.965 359.122 164.965Z" fill="#2A3251"/>
    <path d="M330.844 212.769H318.345V283.311H330.844V212.769Z" fill="#BDBDBD"/>
    <path d="M321.019 271.763L277.887 290.228L278.626 295.604L323.484 281.813L321.019 271.763Z" fill="#BDBDBD"/>
    <path d="M329.455 273.266L372.34 291.731L371.601 297.107L326.99 283.317L329.455 273.266Z" fill="#BDBDBD"/>
    <path d="M290.271 297.107C290.271 301.577 286.378 305.269 281.665 305.269C276.952 305.269 273.059 301.577 273.059 297.107C273.059 292.638 276.952 288.946 281.665 288.946C286.378 288.946 290.271 292.638 290.271 297.107Z" fill="#000103"/>
    <path d="M383.545 298.079C383.545 302.549 379.652 306.241 374.939 306.241C370.226 306.241 366.333 302.549 366.333 298.079C366.333 293.61 370.226 289.917 374.939 289.917C379.652 289.917 383.545 293.61 383.545 298.079Z" fill="#A9AAAC"/>
    <path d="M359.737 217.433H287.609C283.715 217.433 280.437 214.324 280.437 210.632C280.437 206.939 283.715 203.83 287.609 203.83H359.737C363.63 203.83 366.909 206.939 366.909 210.632C366.909 214.324 363.63 217.433 359.737 217.433Z" fill="#2A3251"/>
    <path d="M275.523 68.19L290.687 84.3192L305.44 69.5503L282.695 45.8424L275.523 68.19Z" fill="#F1BA9A"/>
    <path d="M284.331 77.5177C284.126 77.3233 282.487 64.4977 282.487 64.4977L277.159 69.9389L284.331 77.5177Z" fill="#D89877"/>
    <path d="M252.368 31.4621C252.368 31.4621 243.762 36.7089 248.27 48.1742C248.27 48.1742 251.754 56.336 256.671 68.1899C259.335 74.4084 267.532 76.9346 273.269 73.0481C276.753 70.7162 280.441 67.4126 282.9 62.9431L286.179 55.9473C292.736 37.2919 271.425 20.5798 253.598 30.6848C253.188 30.8791 252.778 31.2678 252.368 31.4621Z" fill="#F1BA9A"/>
    <path d="M253.594 56.9189L251.135 62.5544C250.725 63.3317 251.545 64.109 252.365 63.9147L256.873 62.5544L253.594 56.9189Z" fill="#F1BA9A"/>
    <path d="M253.802 46.6196C253.802 46.6196 250.523 47.3969 250.933 48.7572C250.933 48.7572 251.138 49.7289 254.007 48.9516C256.876 48.1742 257.49 47.7856 257.49 46.8139C257.695 45.8423 255.441 46.231 253.802 46.6196Z" fill="black"/>
    <path d="M291.712 27.1869C288.843 22.9117 281.671 19.6082 276.138 19.6082C252.984 19.0252 246.836 38.6522 246.836 38.6522C275.319 18.0536 273.884 46.6196 273.884 46.6196C273.884 46.6196 279.417 49.7289 280.646 51.4778C286.794 59.0566 292.326 56.7247 292.326 56.7247C294.171 41.7615 296.425 33.9884 291.712 27.1869Z" fill="#1E1E1E"/>
    <path d="M256.877 55.7532C256.877 56.5305 256.467 57.1135 255.647 57.3078C254.828 57.3078 254.213 56.9192 254.008 56.1419C253.803 55.3646 254.418 54.7816 255.237 54.5872C256.057 54.5872 256.672 54.9759 256.877 55.7532Z" fill="black"/>
    <path d="M257.284 65.2749L260.358 63.1373" stroke="black" stroke-width="0.529957" stroke-miterlimit="10" stroke-linecap="round" stroke-linejoin="round"/>
    <path d="M274.701 50.1175C271.422 50.5062 268.349 48.3686 267.734 45.2593L265.48 36.1259C265.48 36.1259 256.464 46.0366 250.931 37.8749C250.931 37.8749 237.407 45.065 234.539 36.1259C231.67 27.1869 240.481 24.855 259.948 19.2195C259.948 19.2195 256.054 16.1103 258.923 14.3613C261.792 12.6124 267.734 16.6932 267.734 16.6932C267.734 16.6932 267.734 11.2521 271.218 11.2521C274.496 11.2521 276.34 14.9443 276.34 14.9443C276.34 14.9443 300.315 11.2521 296.831 36.1259L292.733 56.336L278.799 46.4253L274.701 50.1175Z" fill="#1E1E1E"/>
    <path d="M285.769 45.0652C287.614 48.1744 286.179 52.0609 282.901 53.8099C279.622 55.5588 275.524 54.1985 273.68 51.0893C271.835 47.9801 273.27 44.0935 276.548 42.3446C280.032 40.79 284.13 41.9559 285.769 45.0652Z" fill="#F1BA9A"/>
    <path d="M277.777 50.5062C277.777 50.5062 275.523 46.4254 280.031 44.8708" stroke="black" stroke-width="0.529957" stroke-miterlimit="10" stroke-linecap="round" stroke-linejoin="round"/>
    <path d="M288.836 84.5134C288.836 84.5134 288.631 95.9787 296.622 114.634C304.614 133.29 301.54 165.936 301.54 165.936C301.54 165.936 323.875 177.402 357.276 176.819C357.276 176.819 360.759 126.294 344.776 95.2014C330.432 66.8296 305.024 68.9672 305.024 68.9672L288.836 84.5134Z" fill="#2D4ACD"/>
    <path d="M202.571 147.087H155.032V151.945H202.571V147.087Z" fill="#B2B2B8"/>
    <path d="M246.834 133.484L202.368 142.812L200.934 152.14H262.817L246.834 133.484Z" fill="#F1BA9A"/>
    <path d="M200.934 152.139C200.934 152.139 184.336 151.751 180.648 139.703L166.714 141.646C165.075 141.646 163.845 140.48 163.845 138.925C163.845 137.565 164.87 136.399 166.304 136.205L177.574 133.095C179.009 132.901 180.443 132.901 182.082 133.095C185.566 133.678 193.967 137.759 202.778 143.2L200.934 152.139Z" fill="#F1BA9A"/>
    <path d="M291.709 84.5135L246.834 133.484L262.817 152.139L317.733 111.136L291.709 84.5135Z" fill="#2D4ACD"/>
    <path d="M299.704 124.545L317.736 111.136" stroke="#EBEFF2" stroke-width="0.795805" stroke-miterlimit="10"/>
    <path d="M248.676 257.853L263.224 285.837L281.666 284.671L269.576 253.773L248.676 257.853Z" fill="#F1BA9A"/>
    <path d="M260.562 282.144L234.129 295.747C232.08 296.719 231.26 298.856 231.67 300.8L289.045 299.634L282.488 281.367L260.562 282.144Z" fill="#000103"/>
    <path d="M290.069 305.075L231.771 306.241L231.567 300.8L290.069 299.634V305.075Z" fill="#8E8E8E"/>
    <path d="M246.832 274.76L278.593 268.736L256.053 190.228C252.979 180.123 241.709 174.487 231.054 177.985C221.013 181.288 215.686 191.782 219.374 201.499L246.832 274.76Z" fill="#24201D"/>
    <path d="M301.749 165.936L233.309 177.402C233.309 177.402 227.981 186.341 232.489 191.782L240.071 200.915C241.915 203.053 244.579 206.357 247.652 206.357L331.461 204.413C331.461 204.413 357.689 206.939 357.484 177.013L301.749 165.936Z" fill="#24201D"/>
    <path d="M260.359 205.579L251.957 198.972" stroke="#5B493D" stroke-width="0.795805" stroke-miterlimit="10"/>
    <path d="M118.972 64.3036H113.849V151.168H118.972V64.3036Z" fill="#BDBDBD"/>
    <path d="M143.151 147.087H91.3091V151.945H143.151V147.087Z" fill="#BDBDBD"/>
    <path d="M109.546 60.8057C109.546 68.9674 116.513 75.7689 125.324 75.7689C129.627 75.7689 133.315 74.2142 136.184 71.688C132.701 63.1376 129.217 54.3929 124.299 46.0368C115.898 46.6198 109.546 53.0326 109.546 60.8057Z" fill="#D6D6D6"/>
    <path d="M115.896 48.7574L121.019 75.1859C121.019 75.1859 123.068 75.9632 126.141 75.7689L115.896 48.7574Z" fill="#C6C6C6"/>
    <path d="M83.715 162.827V306.241" stroke="#151B27" stroke-width="2.12208" stroke-miterlimit="10"/>
    <path d="M239.856 162.827V306.241" stroke="#151B27" stroke-width="2.12208" stroke-miterlimit="10"/>
    <path d="M278.38 152.14H51.9545V163.022H278.38V152.14Z" fill="#213033"/>
    <path d="M452.063 306.241L0 306.241" stroke="#213033" stroke-width="1.06104" stroke-miterlimit="10"/>
    <path d="M110.367 0.471494L98.9983 4.37085L142.555 118.587L153.924 114.687L110.367 0.471494Z" fill="#BDBDBD"/>
    </svg>
    