<svg id="eaFLj17AGDI1" xmlns="http://www.w3.org/2000/svg" xmlns:xlink="http://www.w3.org/1999/xlink" viewBox="0 0 847.99738 727.30542" shape-rendering="geometricPrecision" text-rendering="geometricPrecision"><path d="M224.12631,86.34729h376.31836c26.56635.029914,48.095153,21.55877,48.125,48.12512v205.87579c-.029853,26.566338-21.558662,48.095174-48.125,48.12506h-376.31836c-26.566338-.029886-48.095147-21.558722-48.125-48.12506v-205.87579c.029847-26.56635,21.55865-48.095206,48.125-48.12512Z" transform="translate(-176.001-86.3473)" fill="#f2f2f2"/><path d="M224.12582,100.20148h376.31885c18.918532.021206,34.249755,15.352398,34.271,34.27093v205.87579c-.021267,18.918515-15.352485,34.249679-34.271,34.27088h-376.31885c-18.918345-.021416-34.249294-15.352535-34.2705-34.27088v-205.87579c.021178-18.918365,15.352135-34.249514,34.2705-34.27093Z" transform="translate(-176.001-86.3473)" fill="#fff"/><path d="M227.79792,462.18379c-1.135569-.003245-2.259334-.230571-3.30688-.66895-3.200161-1.286063-5.283448-4.403821-5.24707-7.85254v-71.16992L314.12653,379.3l-80.37231,80.37256c-1.569873,1.599699-3.714986,2.504099-5.9563,2.51123Z" transform="translate(-176.001-86.3473)" fill="#f2f2f2"/><rect width="324" height="41.0275" rx="20.51374" ry="20.51374" transform="translate(73.8257 65.063)" fill="#f2f2f2"/><rect width="324" height="41.0275" rx="20.51374" ry="20.51374" transform="translate(74.2842 130.549)" fill="#f2f2f2"/><rect width="324" height="41.0275" rx="20.51374" ry="20.51374" transform="translate(74.7427 196.035)" fill="#f2f2f2"/><path d="M818.36162,191.34729h-376.31836c-26.56635.029914-48.095153,21.55877-48.125,48.12512v205.87579c.029853,26.566338,21.558662,48.095174,48.125,48.12506h376.31836c26.566338-.029886,48.095147-21.558722,48.125-48.12506v-205.87579c-.029847-26.56635-21.55865-48.095206-48.125-48.12512Z" transform="translate(-176.001-86.3473)" fill="#e6e6e6"/><path d="M818.36211,205.20148h-376.31885c-18.918532.021206-34.249755,15.352398-34.271,34.27093v205.87579c.021267,18.918515,15.352485,34.249679,34.271,34.27088h376.31885c18.918347-.021416,34.249299-15.352533,34.27051-34.27088v-205.87579c-.021184-18.918366-15.352144-34.249514-34.27051-34.27093Z" transform="translate(-176.001-86.3473)" fill="#fff"/><path d="M789.73371,564.67256L709.3614,484.3l94.88257,3.19238v71.16992c.036375,3.448718-2.046911,6.566475-5.24707,7.85254-1.04755.438378-2.171317.665705-3.30689.66895-2.241314-.007131-4.386427-.911531-5.9563-2.51123Z" transform="translate(-176.001-86.3473)" fill="#e6e6e6"/><circle r="26" transform="translate(371.201 256.063)" fill="#e6e6e6"/><circle r="26" transform="translate(454.201 256.063)" fill="#e6e6e6"/><circle r="26" transform="translate(537.201 256.063)" fill="#e6e6e6"/></svg>
