<svg width="37" height="37" viewBox="0 0 37 37" fill="none" xmlns="http://www.w3.org/2000/svg">
<rect x="0.821289" y="1.3042" width="34.71" height="34.71" rx="17.355" stroke="#DCDCDC"/>
<path d="M13.2486 17.2515C12.4743 17.2515 11.8408 17.885 11.8408 18.6593C11.8408 19.4335 12.4743 20.067 13.2486 20.067C14.0229 20.067 14.6564 19.4335 14.6564 18.6593C14.6564 17.885 14.0229 17.2515 13.2486 17.2515Z" fill="#292D32" fill-opacity="0.62"/>
<path d="M23.1031 17.2515C22.3288 17.2515 21.6953 17.885 21.6953 18.6593C21.6953 19.4335 22.3288 20.067 23.1031 20.067C23.8774 20.067 24.5109 19.4335 24.5109 18.6593C24.5109 17.885 23.8774 17.2515 23.1031 17.2515Z" fill="#292D32" fill-opacity="0.62"/>
<path d="M18.1759 17.2515C17.4016 17.2515 16.7681 17.885 16.7681 18.6593C16.7681 19.4335 17.4016 20.067 18.1759 20.067C18.9501 20.067 19.5836 19.4335 19.5836 18.6593C19.5836 17.885 18.9501 17.2515 18.1759 17.2515Z" fill="#292D32" fill-opacity="0.62"/>
</svg>
