<svg width="30px" height="30px" viewBox="-3.2 -3.2 38.40 38.40" version="1.1" xmlns="http://www.w3.org/2000/svg" xmlns:xlink="http://www.w3.org/1999/xlink" fill="#fff" stroke="#fff" stroke-width="0.96"><g id="SVGRepo_bgCarrier" stroke-width="0"></g><g id="SVGRepo_tracerCarrier" stroke-linecap="round" stroke-linejoin="round"></g><g id="SVGRepo_iconCarrier"> <g id="icomoon-ignore"> </g> <path d="M13.11 29.113c7.243 0 13.113-5.871 13.113-13.113s-5.87-13.113-13.113-13.113c-7.242 0-13.113 5.871-13.113 13.113s5.871 13.113 13.113 13.113zM13.11 3.936c6.652 0 12.064 5.412 12.064 12.064s-5.412 12.064-12.064 12.064c-6.653 0-12.064-5.412-12.064-12.064s5.411-12.064 12.064-12.064z" fill="#fff"> </path> <path d="M13.906 21.637l0.742 0.742 6.378-6.379-6.378-6.379-0.742 0.742 5.112 5.112h-12.727v1.049h12.727z" fill="#fff"> </path> </g></svg>