<svg width="21" height="21" viewBox="0 0 21 21" fill="none" xmlns="http://www.w3.org/2000/svg">
<path d="M10.533 3.33472C7.77464 3.33472 5.53298 5.57638 5.53298 8.33472V10.7431C5.53298 11.2514 5.31631 12.0264 5.05798 12.4597L4.09964 14.0514C3.50798 15.0347 3.91631 16.1264 4.99964 16.4931C8.59131 17.6931 12.4663 17.6931 16.058 16.4931C17.0663 16.1597 17.508 14.9681 16.958 14.0514L15.9996 12.4597C15.7496 12.0264 15.533 11.2514 15.533 10.7431V8.33472C15.533 5.58472 13.283 3.33472 10.533 3.33472Z" stroke="#292D32" stroke-width="1.2991" stroke-miterlimit="10" stroke-linecap="round"/>
<path d="M12.0747 3.57637C11.8163 3.50137 11.5497 3.44303 11.2747 3.4097C10.4747 3.3097 9.708 3.36803 8.99133 3.57637C9.233 2.9597 9.833 2.52637 10.533 2.52637C11.233 2.52637 11.833 2.9597 12.0747 3.57637Z" stroke="#292D32" stroke-width="1.2991" stroke-miterlimit="10" stroke-linecap="round" stroke-linejoin="round"/>
<path d="M13.0331 16.793C13.0331 18.168 11.9081 19.293 10.5331 19.293C9.84975 19.293 9.21641 19.0096 8.76641 18.5596C8.31641 18.1096 8.03308 17.4763 8.03308 16.793" stroke="#292D32" stroke-width="1.2991" stroke-miterlimit="10"/>
</svg>
