<svg width="25" height="24" viewBox="0 0 25 24" fill="none" xmlns="http://www.w3.org/2000/svg">
<mask id="mask0_56_2796" style="mask-type:alpha" maskUnits="userSpaceOnUse" x="3" y="2" width="18" height="20">
<path fill-rule="evenodd" clip-rule="evenodd" d="M3.85449 2.04565H20.4794V21.4011H3.85449V2.04565Z" fill="white"/>
</mask>
<g mask="url(#mask0_56_2796)">
<path fill-rule="evenodd" clip-rule="evenodd" d="M8.31286 3.50802C6.69744 3.50802 5.35596 4.81635 5.31794 6.42983V16.8565C5.28186 18.5265 6.59799 19.9021 8.25144 19.9392H16.1131C17.7403 19.8719 19.0291 18.5197 19.0174 16.8624V8.21489L14.4987 3.50802H8.32456H8.31286ZM8.32456 21.4016H8.2183C5.75957 21.346 3.80195 19.3006 3.85557 16.8409V6.41228C3.91211 3.99353 5.90971 2.04565 8.31091 2.04565H8.32749H14.8107C15.0095 2.04565 15.1996 2.12657 15.3381 2.26988L20.276 7.41449C20.4066 7.55001 20.4798 7.73231 20.4798 7.92047V16.8565C20.4973 19.3026 18.5923 21.3011 16.1424 21.4006L8.32456 21.4016Z" fill="#292D32"/>
</g>
<path fill-rule="evenodd" clip-rule="evenodd" d="M19.7439 8.84333H17.058C15.2739 8.83845 13.8232 7.38389 13.8232 5.60175V2.76573C13.8232 2.36212 14.1508 2.03455 14.5544 2.03455C14.958 2.03455 15.2856 2.36212 15.2856 2.76573V5.60175C15.2856 6.58056 16.0821 7.37804 17.0599 7.38096H19.7439C20.1475 7.38096 20.4751 7.70853 20.4751 8.11214C20.4751 8.51576 20.1475 8.84333 19.7439 8.84333Z" fill="#292D32"/>
<path fill-rule="evenodd" clip-rule="evenodd" d="M14.3722 15.7887H9.10765C8.70404 15.7887 8.37646 15.4611 8.37646 15.0575C8.37646 14.6539 8.70404 14.3263 9.10765 14.3263H14.3722C14.7758 14.3263 15.1034 14.6539 15.1034 15.0575C15.1034 15.4611 14.7758 15.7887 14.3722 15.7887Z" fill="#292D32"/>
<path fill-rule="evenodd" clip-rule="evenodd" d="M12.3785 12.1308H9.10667C8.70306 12.1308 8.37549 11.8033 8.37549 11.3996C8.37549 10.996 8.70306 10.6685 9.10667 10.6685H12.3785C12.7821 10.6685 13.1097 10.996 13.1097 11.3996C13.1097 11.8033 12.7821 12.1308 12.3785 12.1308Z" fill="#292D32"/>
</svg>
