<svg width="16" height="16" viewBox="0 0 16 16" fill="none" xmlns="http://www.w3.org/2000/svg">
<rect width="16" height="16" fill="white"/>
<path d="M9.125 4.5H9.12506C9.36761 4.49997 9.6019 4.5881 9.7843 4.74796C10.0092 4.94504 10.3045 5.16135 10.6339 5.29647C10.9627 5.43134 11.3844 5.50752 11.8019 5.322L13.1478 4.72392L13.1483 4.72371C13.1863 4.70676 13.228 4.69958 13.2695 4.70284C13.3111 4.70609 13.3511 4.71968 13.3861 4.74235C13.421 4.76503 13.4498 4.79609 13.4697 4.83269C13.4896 4.8693 13.5 4.9103 13.5 4.95196V10.5478C13.5 10.5894 13.4895 10.6304 13.4697 10.667C13.4498 10.7036 13.4211 10.7346 13.3862 10.7573C13.3512 10.7799 13.3112 10.7935 13.2697 10.7968C13.2282 10.8001 13.1865 10.793 13.1485 10.7761L13.1485 10.7761L11.8019 10.1779C11.3844 9.99239 10.9627 10.0686 10.6339 10.2035C10.3045 10.3386 10.0092 10.555 9.7843 10.752C9.6019 10.9119 9.36761 11 9.12506 11H9.125H3.5C3.23478 11 2.98043 10.8946 2.79289 10.7071C2.60536 10.5196 2.5 10.2652 2.5 10V5.5C2.5 5.23478 2.60536 4.98043 2.79289 4.79289C2.98043 4.60536 3.23478 4.5 3.5 4.5H9.125Z" stroke="#252525"/>
</svg>
