<svg width="15" height="15" viewBox="0 0 20 20" fill="none" xmlns="http://www.w3.org/2000/svg">
<g clip-path="url(#clip0_1_14)">
<path d="M10 20C8.02219 20 6.08879 19.4135 4.4443 18.3147C2.79981 17.2159 1.51808 15.6541 0.761209 13.8269C0.00433274 11.9996 -0.1937 9.98888 0.192152 8.0491C0.578004 6.10929 1.53042 4.32746 2.92894 2.92894C4.32746 1.53042 6.10929 0.578004 8.0491 0.192152C9.98888 -0.1937 11.9996 0.00433274 13.8269 0.761209C15.6541 1.51808 17.2159 2.79981 18.3147 4.4443C19.4135 6.08879 20 8.02219 20 10C19.9971 12.6513 18.9426 15.1931 17.0679 17.0679C15.1931 18.9426 12.6513 19.9971 10 20ZM10 1.66667C8.35182 1.66667 6.74066 2.15542 5.37025 3.07109C3.99984 3.98677 2.93174 5.28826 2.30101 6.81097C1.67028 8.33369 1.50525 10.0092 1.82679 11.6257C2.14834 13.2423 2.94201 14.7271 4.10745 15.8925C5.27288 17.058 6.75775 17.8517 8.37425 18.1732C9.99079 18.4948 11.6664 18.3297 13.189 17.699C14.7117 17.0683 16.0132 16.0002 16.9289 14.6297C17.8446 13.2593 18.3333 11.6482 18.3333 10C18.3309 7.79061 17.4522 5.67241 15.8899 4.11013C14.3276 2.54785 12.2094 1.66909 10 1.66667Z" fill="white"/>
<path d="M10.8334 4.16666H9.16669V12.5H10.8334V4.16666Z" fill="white"/>
<path d="M10.8334 14.1667H9.16669V15.8333H10.8334V14.1667Z" fill="white"/>
</g>
<defs>
<clipPath id="clip0_1_14">
<rect width="20" height="20" fill="white"/>
</clipPath>
</defs>
</svg>
