<svg width="42" height="42" viewBox="0 0 42 42" fill="none" xmlns="http://www.w3.org/2000/svg">
<path d="M21 42C32.598 42 42 32.598 42 21C42 9.40198 32.598 0 21 0C9.40202 0 0 9.40198 0 21C0 32.598 9.40202 42 21 42Z" fill="#2D4ACD" fill-opacity="0.04"/>
<path d="M21 42C32.598 42 42 32.598 42 21C42 9.40198 32.598 0 21 0C9.40202 0 0 9.40198 0 21C0 32.598 9.40202 42 21 42Z" fill="#2D4ACD" fill-opacity="0.04"/>
<path d="M21 41.5C32.3218 41.5 41.5 32.3219 41.5 21C41.5 9.67818 32.3218 0.5 21 0.5C9.67813 0.5 0.5 9.67818 0.5 21C0.5 32.3219 9.67813 41.5 21 41.5Z" stroke="#2D4ACD" stroke-opacity="0.33"/>
<g clip-path="url(#clip0_1_3)">
<path d="M15.515 21.1738H17.4013V22.4313H15.515V21.1738ZM18.6588 22.4313H20.545V21.1738H18.6588V22.4313ZM15.515 24.9463H17.4013V23.6888H15.515V24.9463ZM18.6588 24.9463H20.545V23.6888H18.6588V24.9463ZM15.515 17.4013H17.4013V16.1438H15.515V17.4013ZM18.6588 17.4013H20.545V16.1438H18.6588V17.4013ZM15.515 19.9163H17.4013V18.6588H15.515V19.9163ZM18.6588 19.9163H20.545V18.6588H18.6588V19.9163ZM28.09 18.03V28.09H13V14.8863C13 14.386 13.1987 13.9062 13.5525 13.5525C13.9062 13.1987 14.386 13 14.8863 13H21.1738C21.674 13 22.1538 13.1987 22.5075 13.5525C22.8613 13.9062 23.06 14.386 23.06 14.8863V16.1438H26.2038C26.704 16.1438 27.1838 16.3425 27.5375 16.6962C27.8913 17.05 28.09 17.5297 28.09 18.03ZM21.8025 14.8863C21.8025 14.7195 21.7363 14.5596 21.6183 14.4417C21.5004 14.3237 21.3405 14.2575 21.1738 14.2575H14.8863C14.7195 14.2575 14.5596 14.3237 14.4417 14.4417C14.3237 14.5596 14.2575 14.7195 14.2575 14.8863V26.8325H21.8025V14.8863ZM26.8325 18.03C26.8325 17.8632 26.7663 17.7033 26.6483 17.5854C26.5304 17.4675 26.3705 17.4013 26.2038 17.4013H23.06V26.8325H26.8325V18.03ZM24.3175 22.4313H25.575V21.1738H24.3175V22.4313ZM24.3175 24.9463H25.575V23.6888H24.3175V24.9463ZM24.3175 19.9163H25.575V18.6588H24.3175V19.9163Z" fill="#3552D6"/>
</g>
<defs>
<clipPath id="clip0_1_3">
<rect width="15.09" height="15.09" fill="white" transform="translate(13 13)"/>
</clipPath>
</defs>
</svg>
