<svg width="43" height="43" viewBox="0 0 43 43" fill="none" xmlns="http://www.w3.org/2000/svg">
<g clip-path="url(#clip0_2_29)">
<path d="M21.5083 42.1924C33.1063 42.1924 42.5083 32.7904 42.5083 21.1924C42.5083 9.5944 33.1063 0.192383 21.5083 0.192383C9.91032 0.192383 0.508301 9.5944 0.508301 21.1924C0.508301 32.7904 9.91032 42.1924 21.5083 42.1924Z" fill="#2D4ACD"/>
<path d="M21.5083 41.6924C32.8301 41.6924 42.0083 32.5142 42.0083 21.1924C42.0083 9.87055 32.8301 0.692383 21.5083 0.692383C10.1865 0.692383 1.0083 9.87055 1.0083 21.1924C1.0083 32.5142 10.1865 41.6924 21.5083 41.6924Z" stroke="#2D4ACD" stroke-opacity="0.33"/>
<g clip-path="url(#clip1_2_29)">
<path d="M16.515 21.1738H18.4013V22.4313H16.515V21.1738ZM19.6588 22.4313H21.545V21.1738H19.6588V22.4313ZM16.515 24.9463H18.4013V23.6888H16.515V24.9463ZM19.6588 24.9463H21.545V23.6888H19.6588V24.9463ZM16.515 17.4013H18.4013V16.1438H16.515V17.4013ZM19.6588 17.4013H21.545V16.1438H19.6588V17.4013ZM16.515 19.9163H18.4013V18.6588H16.515V19.9163ZM19.6588 19.9163H21.545V18.6588H19.6588V19.9163ZM29.09 18.03V28.09H14V14.8863C14 14.386 14.1987 13.9062 14.5525 13.5525C14.9062 13.1987 15.386 13 15.8863 13H22.1738C22.674 13 23.1538 13.1987 23.5075 13.5525C23.8613 13.9062 24.06 14.386 24.06 14.8863V16.1438H27.2038C27.704 16.1438 28.1838 16.3425 28.5375 16.6962C28.8913 17.05 29.09 17.5297 29.09 18.03ZM22.8025 14.8863C22.8025 14.7195 22.7363 14.5596 22.6183 14.4417C22.5004 14.3237 22.3405 14.2575 22.1738 14.2575H15.8863C15.7195 14.2575 15.5596 14.3237 15.4417 14.4417C15.3237 14.5596 15.2575 14.7195 15.2575 14.8863V26.8325H22.8025V14.8863ZM27.8325 18.03C27.8325 17.8632 27.7663 17.7033 27.6483 17.5854C27.5304 17.4675 27.3705 17.4013 27.2038 17.4013H24.06V26.8325H27.8325V18.03ZM25.3175 22.4313H26.575V21.1738H25.3175V22.4313ZM25.3175 24.9463H26.575V23.6888H25.3175V24.9463ZM25.3175 19.9163H26.575V18.6588H25.3175V19.9163Z" fill="white"/>
</g>
</g>
<defs>
<clipPath id="clip0_2_29">
<rect width="43" height="43" fill="white"/>
</clipPath>
<clipPath id="clip1_2_29">
<rect width="15.09" height="15.09" fill="white" transform="translate(14 13)"/>
</clipPath>
</defs>
</svg>
