<svg width="43" height="43" viewBox="0 0 43 43" fill="none" xmlns="http://www.w3.org/2000/svg">
<g clip-path="url(#clip0_3_11)">
<path d="M21.5083 42.1924C33.1063 42.1924 42.5083 32.7904 42.5083 21.1924C42.5083 9.5944 33.1063 0.192383 21.5083 0.192383C9.91032 0.192383 0.508301 9.5944 0.508301 21.1924C0.508301 32.7904 9.91032 42.1924 21.5083 42.1924Z" fill="#2D4ACD"/>
<path d="M21.5083 41.6924C32.8301 41.6924 42.0083 32.5142 42.0083 21.1924C42.0083 9.87055 32.8301 0.692383 21.5083 0.692383C10.1865 0.692383 1.0083 9.87055 1.0083 21.1924C1.0083 32.5142 10.1865 41.6924 21.5083 41.6924Z" stroke="#2D4ACD" stroke-opacity="0.33"/>
<path d="M15.2575 15.1466V19.2875H14V14.2575C14 13.564 14.564 13 15.2575 13H20.2875V14.2575H16.1466L24.1902 22.3011L23.3011 23.1902L15.2575 15.1466ZM22.8025 15.515C21.755 15.515 20.7685 15.7759 19.8989 16.2311L20.8395 17.1718C21.4431 16.9146 22.1065 16.7725 22.8025 16.7725C25.5759 16.7725 27.8325 19.0291 27.8325 21.8025C27.8325 24.5759 25.5759 26.8325 22.8025 26.8325C20.0291 26.8325 17.7725 24.5759 17.7725 21.8025C17.7725 21.1065 17.9152 20.4431 18.1718 19.8395L17.2311 18.8989C16.7759 19.7685 16.515 20.755 16.515 21.8025C16.515 25.2694 19.3356 28.09 22.8025 28.09C26.2694 28.09 29.09 25.2694 29.09 21.8025C29.09 18.3356 26.2694 15.515 22.8025 15.515Z" fill="white"/>
</g>
<defs>
<clipPath id="clip0_3_11">
<rect width="43" height="43" fill="white"/>
</clipPath>
</defs>
</svg>
