<svg width="43" height="43" viewBox="0 0 43 43" fill="none" xmlns="http://www.w3.org/2000/svg">
<g clip-path="url(#clip0_2_16)">
<path d="M21.4277 42.9492C33.0257 42.9492 42.4277 33.5472 42.4277 21.9492C42.4277 10.3512 33.0257 0.949219 21.4277 0.949219C9.82969 0.949219 0.427673 10.3512 0.427673 21.9492C0.427673 33.5472 9.82969 42.9492 21.4277 42.9492Z" fill="#2D4ACD" fill-opacity="0.04"/>
<path d="M21.4277 42.9492C33.0257 42.9492 42.4277 33.5472 42.4277 21.9492C42.4277 10.3512 33.0257 0.949219 21.4277 0.949219C9.82969 0.949219 0.427673 10.3512 0.427673 21.9492C0.427673 33.5472 9.82969 42.9492 21.4277 42.9492Z" fill="#2D4ACD" fill-opacity="0.04"/>
<path d="M21.4277 42.4492C32.7495 42.4492 41.9277 33.2711 41.9277 21.9492C41.9277 10.6274 32.7495 1.44922 21.4277 1.44922C10.1058 1.44922 0.927673 10.6274 0.927673 21.9492C0.927673 33.2711 10.1058 42.4492 21.4277 42.4492Z" stroke="#2D4ACD" stroke-opacity="0.33"/>
<path d="M14.2575 16.1466V20.2875H13V15.2575C13 14.564 13.564 14 14.2575 14H19.2875V15.2575H15.1466L23.1902 23.3011L22.3011 24.1902L14.2575 16.1466ZM21.8025 16.515C20.755 16.515 19.7685 16.7759 18.8989 17.2311L19.8395 18.1718C20.4431 17.9146 21.1065 17.7725 21.8025 17.7725C24.5759 17.7725 26.8325 20.0291 26.8325 22.8025C26.8325 25.5759 24.5759 27.8325 21.8025 27.8325C19.0291 27.8325 16.7725 25.5759 16.7725 22.8025C16.7725 22.1065 16.9152 21.4431 17.1718 20.8395L16.2311 19.8989C15.7759 20.7685 15.515 21.755 15.515 22.8025C15.515 26.2694 18.3356 29.09 21.8025 29.09C25.2694 29.09 28.09 26.2694 28.09 22.8025C28.09 19.3356 25.2694 16.515 21.8025 16.515Z" fill="#2D4ACD"/>
</g>
<defs>
<clipPath id="clip0_2_16">
<rect width="43" height="43" fill="white"/>
</clipPath>
</defs>
</svg>
