<svg width="25" height="25" viewBox="0 0 25 25" fill="none" xmlns="http://www.w3.org/2000/svg">
    <path d="M15.6055 23.6279H9.60547C4.17547 23.6279 1.85547 21.3079 1.85547 15.8779V9.87793C1.85547 4.44793 4.17547 2.12793 9.60547 2.12793H15.6055C21.0355 2.12793 23.3555 4.44793 23.3555 9.87793V15.8779C23.3555 21.3079 21.0355 23.6279 15.6055 23.6279ZM9.60547 3.62793C4.99547 3.62793 3.35547 5.26793 3.35547 9.87793V15.8779C3.35547 20.4879 4.99547 22.1279 9.60547 22.1279H15.6055C20.2155 22.1279 21.8555 20.4879 21.8555 15.8779V9.87793C21.8555 5.26793 20.2155 3.62793 15.6055 3.62793H9.60547Z" fill="#2F4BCB" />
    <path d="M14.3655 18.6279H10.8355C9.73546 18.6279 8.86546 18.0879 8.37546 17.1079L7.48546 15.3179C7.27546 14.8879 6.84546 14.6279 6.36546 14.6279H2.59546C2.18546 14.6279 1.84546 14.2879 1.84546 13.8779C1.84546 13.4679 2.19546 13.1279 2.60546 13.1279H6.36546C7.41546 13.1279 8.35546 13.7079 8.82546 14.6479L9.71546 16.4379C9.94546 16.8979 10.3155 17.1279 10.8355 17.1279H14.3655C14.8455 17.1279 15.2755 16.8679 15.4855 16.4379L16.3755 14.6479C16.8455 13.7079 17.7855 13.1279 18.8355 13.1279H22.5755C22.9855 13.1279 23.3255 13.4679 23.3255 13.8779C23.3255 14.2879 22.9855 14.6279 22.5755 14.6279H18.8355C18.3555 14.6279 17.9255 14.8879 17.7155 15.3179L16.8255 17.1079C16.3555 18.0479 15.4155 18.6279 14.3655 18.6279Z" fill="#2F4BCB" />
    <path d="M14.2755 8.62793H10.9455C10.5255 8.62793 10.1855 8.28793 10.1855 7.87793C10.1855 7.46793 10.5255 7.12793 10.9355 7.12793H14.2655C14.6755 7.12793 15.0155 7.46793 15.0155 7.87793C15.0155 8.28793 14.6855 8.62793 14.2755 8.62793Z" fill="#2F4BCB" />
    <path d="M15.1055 11.6279H10.1055C9.69547 11.6279 9.35547 11.2879 9.35547 10.8779C9.35547 10.4679 9.69547 10.1279 10.1055 10.1279H15.1055C15.5155 10.1279 15.8555 10.4679 15.8555 10.8779C15.8555 11.2879 15.5155 11.6279 15.1055 11.6279Z" fill="#2F4BCB" />
</svg>
    