<svg width="15" height="15" viewBox="0 0 20 20" fill="none" xmlns="http://www.w3.org/2000/svg">
<g clip-path="url(#clip0_3_19)">
<path d="M10 20C8.02219 20 6.08879 19.4135 4.4443 18.3147C2.79981 17.2159 1.51809 15.6541 0.761209 13.8269C0.00433315 11.9996 -0.193701 9.98887 0.192152 8.04909C0.578004 6.10929 1.53041 4.32745 2.92894 2.92893C4.32746 1.53041 6.10929 0.577996 8.0491 0.192144C9.98887 -0.193708 11.9996 0.00432511 13.8269 0.761201C15.6541 1.51808 17.2159 2.7998 18.3147 4.44429C19.4135 6.08878 20 8.02218 20 10C19.9971 12.6513 18.9426 15.1931 17.0679 17.0679C15.1931 18.9426 12.6513 19.9971 10 20ZM10 1.66666C8.35183 1.66666 6.74066 2.15541 5.37025 3.07109C3.99984 3.98676 2.93174 5.28825 2.30101 6.81096C1.67028 8.33369 1.50525 10.0092 1.82679 11.6257C2.14834 13.2423 2.94201 14.7271 4.10744 15.8925C5.27289 17.058 6.75774 17.8517 8.37425 18.1732C9.99078 18.4948 11.6663 18.3297 13.189 17.699C14.7117 17.0683 16.0132 16.0002 16.929 14.6297C17.8446 13.2593 18.3333 11.6482 18.3333 10C18.3309 7.7906 17.4522 5.6724 15.8899 4.11012C14.3276 2.54784 12.2094 1.66909 10 1.66666Z" fill="#292D32"/>
<path d="M10.8334 4.16666H9.1667V12.5H10.8334V4.16666Z" fill="#292D32"/>
<path d="M10.8334 14.1667H9.1667V15.8333H10.8334V14.1667Z" fill="#292D32"/>
</g>
<defs>
<clipPath id="clip0_3_19">
<rect width="20" height="20" fill="white"/>
</clipPath>
</defs>
</svg>
