<svg width="9" height="9" viewBox="0 0 9 9" fill="none" xmlns="http://www.w3.org/2000/svg">
<g clip-path="url(#clip0_1_4)">
<path d="M7.125 1.5H6.71213C6.53775 0.645375 5.78025 0 4.875 0H4.125C3.21975 0 2.46187 0.645375 2.28787 1.5H1.875C0.841125 1.5 0 2.34113 0 3.375V7.125C0 8.15887 0.841125 9 1.875 9H7.125C8.15887 9 9 8.15887 9 7.125V3.375C9 2.34113 8.15887 1.5 7.125 1.5ZM4.125 0.75H4.875C5.364 0.75 5.78063 1.0635 5.9355 1.5H3.0645C3.21937 1.0635 3.636 0.75 4.125 0.75ZM1.875 2.25H7.125C7.74525 2.25 8.25 2.75475 8.25 3.375V3.75H7.125V3.375C7.125 3.168 6.95737 3 6.75 3C6.54263 3 6.375 3.168 6.375 3.375V3.75H2.625V3.375C2.625 3.168 2.45737 3 2.25 3C2.04263 3 1.875 3.168 1.875 3.375V3.75H0.75V3.375C0.75 2.75475 1.25475 2.25 1.875 2.25ZM7.125 8.25H1.875C1.25475 8.25 0.75 7.74525 0.75 7.125V4.5H1.875V4.875C1.875 5.082 2.04263 5.25 2.25 5.25C2.45737 5.25 2.625 5.082 2.625 4.875V4.5H6.375V4.875C6.375 5.082 6.54263 5.25 6.75 5.25C6.95737 5.25 7.125 5.082 7.125 4.875V4.5H8.25V7.125C8.25 7.74525 7.74525 8.25 7.125 8.25Z" fill="white"/>
</g>
<defs>
<clipPath id="clip0_1_4">
<rect width="9" height="9" fill="white"/>
</clipPath>
</defs>
</svg>
